<svg width="204" height="204" viewBox="0 0 204 204" fill="none" xmlns="http://www.w3.org/2000/svg">
<g clip-path="url(#clip0_4044_80281)">
<path d="M154.463 82.5328C155.037 84.2319 155.585 85.928 156.101 87.6153C157.918 94.0955 157.103 103.212 147.337 109.086C137.09 114.724 123.2 120.628 106.53 125.649C87.1257 131.493 57.6472 139.64 41.7915 138.393C40.4114 133.246 39.67 127.832 39.67 122.241C39.67 118.876 39.9425 115.173 40.4553 111.243L42.6003 99.3553C50.5266 64.3125 73.6377 20 100.915 20C121.533 20 139.774 45.3181 150.871 72.8139L154.463 82.5298V82.5328ZM202.757 85.2011C200.442 75.7482 181.981 71.4605 155.471 72.5746L158.791 81.9447C171.696 82.5446 180.118 85.4109 181.369 90.5289C182.714 96.0192 175.561 103.09 162.829 110.173C162.747 110.221 162.665 110.268 162.58 110.312C149.001 117.824 129.16 125.332 106.53 130.97C81.0952 137.306 57.6853 139.891 41.8912 138.769C30.299 137.944 22.8063 135.122 21.6313 130.317C20.427 125.397 26.0443 119.213 36.3793 112.883L37.4899 101.684C12.776 113.303 -2.10971 126.03 0.243289 135.642C2.49666 144.841 20.0343 149.146 45.4016 148.348C55.1565 169.405 76.3452 184 100.913 184C134.737 184 162.155 156.35 162.155 122.241C162.155 121.739 162.149 121.231 162.138 120.714C188.862 108.684 205.215 95.245 202.757 85.2011Z" fill="black"/>
</g>
<defs>
<clipPath id="clip0_4044_80281">
<rect width="203" height="164" fill="white" transform="translate(0 20)"/>
</clipPath>
</defs>
</svg>
