<?xml version="1.0" ?>
<!-- Uploaded to: SVG Repo, www.svgrepo.com, Generator: SVG Repo Mixer Tools -->
<svg width="800px" height="800px" viewBox="0 0 24 24" version="1.1" xmlns="http://www.w3.org/2000/svg" xmlns:xlink="http://www.w3.org/1999/xlink">
<title/>
<g fill="none" fill-rule="evenodd" id="页面-1" stroke="none" stroke-width="1">
<g id="导航图标" transform="translate(-28.000000, -334.000000)">
<g id="编组" transform="translate(28.000000, 334.000000)">
<rect fill="#FFFFFF" fill-opacity="0.01" fill-rule="nonzero" height="24" id="矩形" width="24" x="0" y="0"/>
<polygon id="路径" points="1 6 23 6 23 18 15 18 12 15 9 18 1 18" stroke="#212121" stroke-linecap="round" stroke-linejoin="round" stroke-width="1.5"/>
<path d="M6.5,14 C7.60455,14 8.5,13.10455 8.5,12 C8.5,10.89545 7.60455,10 6.5,10 C5.39545,10 4.5,10.89545 4.5,12 C4.5,13.10455 5.39545,14 6.5,14 Z" id="路径" stroke="#212121" stroke-linecap="round" stroke-linejoin="round" stroke-width="1.5"/>
<path d="M17.5,14 C18.60455,14 19.5,13.10455 19.5,12 C19.5,10.89545 18.60455,10 17.5,10 C16.39545,10 15.5,10.89545 15.5,12 C15.5,13.10455 16.39545,14 17.5,14 Z" id="路径" stroke="#212121" stroke-linecap="round" stroke-linejoin="round" stroke-width="1.5"/>
</g>
</g>
</g>
</svg>